<svg width="14" height="15" viewBox="0 0 14 15" fill="none" xmlns="http://www.w3.org/2000/svg">
<path d="M0.5625 9.09031C0.5625 7.66679 0.5625 6.95503 0.908339 6.44615C1.05003 6.23766 1.22985 6.05784 1.43833 5.91615C1.94722 5.57031 2.65898 5.57031 4.0825 5.57031H9.0425C10.466 5.57031 11.1778 5.57031 11.6867 5.91615C11.8952 6.05784 12.075 6.23766 12.2167 6.44615C12.5625 6.95503 12.5625 7.66679 12.5625 9.09031V9.09031C12.5625 11.2256 12.5625 12.2932 12.0437 13.0566C11.8312 13.3693 11.5615 13.639 11.2488 13.8516C10.4854 14.3703 9.41778 14.3703 7.2825 14.3703H5.8425C3.70722 14.3703 2.63958 14.3703 1.87625 13.8516C1.56352 13.639 1.29379 13.3693 1.08126 13.0566C0.5625 12.2932 0.5625 11.2256 0.5625 9.09031V9.09031Z" stroke="#6E7390"/>
<path d="M10.1619 5.57051V4.37051C10.1619 2.38228 8.55014 0.770508 6.56191 0.770508V0.770508C4.57369 0.770508 2.96191 2.38228 2.96191 4.37051V5.57051" stroke="#6E7390" stroke-linecap="round"/>
</svg>
