<svg width="238" height="39" viewBox="0 0 238 39" fill="none" xmlns="http://www.w3.org/2000/svg">
<path fill-rule="evenodd" clip-rule="evenodd" d="M67.9023 17.7404V21.621C67.9023 23.445 66.4082 24.9286 64.5713 24.9286H63.3643V29.7266H64.5713C69.0724 29.7266 72.7343 26.0905 72.7343 21.621V17.7404C72.7343 15.9164 74.2284 14.4338 76.0653 14.4338H77.2733V9.63574H76.0653C71.5642 9.63574 67.9023 13.2719 67.9023 17.7404Z" fill="#37384F"/>
<path fill-rule="evenodd" clip-rule="evenodd" d="M200.811 17.7404V21.621C200.811 23.445 199.317 24.9286 197.48 24.9286H196.272V29.7266H197.48C201.982 29.7266 205.644 26.0905 205.644 21.621V17.7404C205.644 15.9164 207.138 14.4338 208.974 14.4338H210.182V9.63574H208.974C204.473 9.63574 200.811 13.2719 200.811 17.7404Z" fill="#37384F"/>
<path fill-rule="evenodd" clip-rule="evenodd" d="M80.3633 29.7266H91.1814V24.9286H85.4198V14.4338H91.1814V9.63574H80.3633V29.7266Z" fill="#37384F"/>
<path fill-rule="evenodd" clip-rule="evenodd" d="M211.727 29.7266H222.545V24.9286H216.783V14.4338H222.545V9.63574H211.727V29.7266Z" fill="#37384F"/>
<path fill-rule="evenodd" clip-rule="evenodd" d="M92.7275 19.6812C92.7275 25.2205 97.5803 29.7266 103.546 29.7266V24.9286C100.429 24.9286 97.8947 22.5741 97.8947 19.6812C97.8947 16.7883 100.429 14.4338 103.546 14.4338V9.63574C97.5803 9.63574 92.7275 14.1418 92.7275 19.6812Z" fill="#37384F"/>
<path fill-rule="evenodd" clip-rule="evenodd" d="M128.272 19.6812V29.7266H132.819V19.6812C132.819 16.7883 135.05 14.4338 137.792 14.4338H139.09V9.63574H137.792C132.542 9.63574 128.272 14.1418 128.272 19.6812Z" fill="#37384F"/>
<path fill-rule="evenodd" clip-rule="evenodd" d="M236.701 9.63574C231.452 9.63574 227.182 14.1418 227.182 19.6812V29.7266H231.729V19.6812C231.729 16.7883 233.959 14.4338 236.701 14.4338H238V9.63574H236.701Z" fill="#37384F"/>
<path fill-rule="evenodd" clip-rule="evenodd" d="M120.486 21.041C120.486 23.1847 118.78 24.9286 116.682 24.9286C114.584 24.9286 112.878 23.1847 112.878 21.041V9.63574H108.182V21.041C108.182 25.8302 111.995 29.7266 116.682 29.7266C121.369 29.7266 125.182 25.8302 125.182 21.041V9.63574H120.486V21.041Z" fill="#37384F"/>
<mask id="mask0_1323_1037" style="mask-type:luminance" maskUnits="userSpaceOnUse" x="0" y="0" width="238" height="39">
<path fill-rule="evenodd" clip-rule="evenodd" d="M0 38.9996H238V0.363281H0V38.9996Z" fill="white"/>
</mask>
<g mask="url(#mask0_1323_1037)">
<path fill-rule="evenodd" clip-rule="evenodd" d="M143.727 29.7266H148.363V9.63574H143.727V29.7266Z" fill="#37384F"/>
<path fill-rule="evenodd" clip-rule="evenodd" d="M146.045 6.54456C147.326 6.54456 148.363 5.50693 148.363 4.22638C148.363 2.94679 147.326 1.9082 146.045 1.9082C144.765 1.9082 143.727 2.94679 143.727 4.22638C143.727 5.50693 144.765 6.54456 146.045 6.54456Z" fill="#37384F"/>
<path fill-rule="evenodd" clip-rule="evenodd" d="M187 29.7266H191.636V9.63574H187V29.7266Z" fill="#37384F"/>
<path fill-rule="evenodd" clip-rule="evenodd" d="M189.318 6.54456C190.599 6.54456 191.636 5.50693 191.636 4.22638C191.636 2.94679 190.599 1.9082 189.318 1.9082C188.038 1.9082 187 2.94679 187 4.22638C187 5.50693 188.038 6.54456 189.318 6.54456Z" fill="#37384F"/>
<path fill-rule="evenodd" clip-rule="evenodd" d="M174.201 23.9059L169.303 9.68919L169.321 9.63574H169.284H164.531H164.495L164.513 9.68919L159.614 23.9059L154.698 9.63574H149.908L156.83 29.7266H162.399L166.908 16.6392L171.417 29.7266H176.985L183.908 9.63574H179.119L174.201 23.9059Z" fill="#37384F"/>
<path fill-rule="evenodd" clip-rule="evenodd" d="M30.909 19.6806C30.909 22.6682 28.4875 25.0896 25.4999 25.0896C22.5123 25.0896 20.0908 22.6682 20.0908 19.6806C20.0908 16.693 22.5123 14.2715 25.4999 14.2715C28.4875 14.2715 30.909 16.693 30.909 19.6806Z" fill="#2870EF"/>
<path fill-rule="evenodd" clip-rule="evenodd" d="M5.24564 13.3191C5.24564 15.4667 3.43308 17.2143 1.20564 17.2143H0V21.9996H1.20564C6.17092 21.9996 10.2099 18.1054 10.2099 13.3191V9.04375C10.2099 6.89616 12.0214 5.14858 14.2489 5.14858H15.4545V0.363281H14.2489C9.28463 0.363281 5.24564 4.25746 5.24564 9.04375V13.3191Z" fill="#37384F"/>
<path fill-rule="evenodd" clip-rule="evenodd" d="M10.1905 30.422V26.1973C10.1905 24.0526 9.3556 22.0362 7.84455 20.4541C6.54583 21.6262 4.91212 22.4676 3.09082 22.8179C4.35037 23.4715 5.20794 24.7414 5.20794 26.1973V30.422C5.20794 35.1515 9.26181 38.9995 14.2454 38.9995H15.4544V34.271H14.2454C12.0097 34.271 10.1905 32.5441 10.1905 30.422Z" fill="#37384F"/>
<path fill-rule="evenodd" clip-rule="evenodd" d="M44.2082 30.3182V26.0428C44.2082 23.8952 46.0206 22.1476 48.2479 22.1476H49.4545V17.3623H48.2479C43.283 17.3623 39.2443 21.2565 39.2443 26.0428V30.3182C39.2443 32.4658 37.4329 34.2133 35.2056 34.2133H34V38.9986H35.2056C40.1695 38.9986 44.2082 35.1045 44.2082 30.3182Z" fill="#37384F"/>
<path fill-rule="evenodd" clip-rule="evenodd" d="M39.2639 8.9413V13.1662C39.2639 15.31 40.0988 17.3275 41.6109 18.9087C42.9096 17.7365 44.5423 16.896 46.3636 16.5458C45.103 15.8922 44.2465 14.6221 44.2465 13.1662V8.9413C44.2465 4.2115 40.1926 0.363281 35.2101 0.363281H34V5.0921H35.2101C37.4457 5.0921 39.2639 6.81905 39.2639 8.9413Z" fill="#37384F"/>
</g>
</svg>
