<?xml version="1.0" encoding="utf-8"?>
<!-- Generator: Adobe Illustrator 25.4.1, SVG Export Plug-In . SVG Version: 6.00 Build 0)  -->
<svg version="1.1" id="Layer_1" xmlns="http://www.w3.org/2000/svg" xmlns:xlink="http://www.w3.org/1999/xlink" x="0px" y="0px"
	 viewBox="0 0 32 32" style="enable-background:new 0 0 32 32;" xml:space="preserve">
<style type="text/css">
	.st0{filter:url(#Adobe_OpacityMaskFilter);}
	.st1{fill-rule:evenodd;clip-rule:evenodd;fill:#FFFFFF;}
	.st2{mask:url(#mask-2_00000178202305458860104320000016116780131735234997_);fill-rule:evenodd;clip-rule:evenodd;fill:#2970F1;}
</style>
<g id="Welcome">
	<g id="Homepage" transform="translate(-790.000000, -964.000000)">
		<g id="Group-14" transform="translate(790.000000, 964.000000)">
			<g id="Group-3">
				<g id="Clip-2">
				</g>
				<defs>
					<filter id="Adobe_OpacityMaskFilter" filterUnits="userSpaceOnUse" x="0" y="0" width="32" height="32">
						<feColorMatrix  type="matrix" values="1 0 0 0 0  0 1 0 0 0  0 0 1 0 0  0 0 0 1 0"/>
					</filter>
				</defs>
				
					<mask maskUnits="userSpaceOnUse" x="0" y="0" width="32" height="32" id="mask-2_00000178202305458860104320000016116780131735234997_">
					<g class="st0">
						<polygon id="path-1_00000112599492913096887450000009307890706949630143_" class="st1" points="0,0 32,0 32,32 0,32 						"/>
					</g>
				</mask>
				<path id="Fill-1" class="st2" d="M32,16c0,8.84-7.16,16-16,16S0,24.84,0,16S7.16,0,16,0S32,7.16,32,16"/>
			</g>
			<path id="Fill-4" class="st1" d="M25.82,21.3v-2.15c0-1.08,0.88-1.96,1.96-1.96h0.59v-2.41h-0.59c-2.41,0-4.37,1.96-4.37,4.37
				v2.15c0,1.08-0.88,1.96-1.96,1.96h-0.59v2.41h0.59C23.86,25.67,25.82,23.71,25.82,21.3"/>
			<path id="Fill-6" class="st1" d="M6.27,12.81c0,1.08-0.88,1.96-1.96,1.96H3.73v2.41h0.59c2.41,0,4.37-1.96,4.37-4.37v-2.15
				c0-1.08,0.88-1.96,1.96-1.96h0.59V6.29h-0.59c-2.41,0-4.37,1.96-4.37,4.37V12.81z"/>
			<path id="Fill-8" class="st1" d="M18.76,15.98c0,1.5-1.22,2.72-2.72,2.72c-1.5,0-2.72-1.22-2.72-2.72s1.22-2.72,2.72-2.72
				C17.55,13.26,18.76,14.48,18.76,15.98"/>
			<path id="Fill-10" class="st1" d="M8.68,21.3v-2.15c0-1.09-0.4-2.12-1.13-2.93c-0.63,0.6-1.42,1.03-2.3,1.2
				c0.61,0.33,1.02,0.98,1.02,1.72v2.15c0,2.41,1.96,4.37,4.37,4.37h0.59v-2.41h-0.59C9.56,23.26,8.68,22.38,8.68,21.3"/>
			<path id="Fill-12" class="st1" d="M23.41,10.66v2.15c0,1.09,0.4,2.12,1.14,2.93c0.63-0.6,1.42-1.03,2.3-1.2
				c-0.61-0.33-1.02-0.98-1.02-1.72v-2.15c0-2.41-1.96-4.37-4.37-4.37h-0.59V8.7h0.59C22.53,8.7,23.41,9.58,23.41,10.66"/>
		</g>
	</g>
</g>
</svg>
