<svg width="16" height="16" viewBox="0 0 16 16" fill="none" xmlns="http://www.w3.org/2000/svg">
<g opacity="1">
<path d="M2.46713 10.1983L3.03276 10.5186L2.46713 10.1983C2.35521 10.396 2.30135 10.6129 2.24745 10.8299C2.24333 10.8466 2.2392 10.8632 2.23505 10.8798L1.57152 13.5339C1.56903 13.5439 1.56651 13.5539 1.56395 13.5641C1.52562 13.717 1.48106 13.8948 1.46617 14.0469C1.44951 14.2173 1.44997 14.5356 1.7072 14.7928C1.96441 15.05 2.28274 15.0505 2.45306 15.0338C2.60521 15.0189 2.78298 14.9744 2.93588 14.936C2.94607 14.9335 2.95614 14.931 2.96609 14.9285L2.9661 14.9285L2.99441 14.9214L2.99442 14.9214L5.62022 14.2649C5.63683 14.2608 5.65345 14.2567 5.67006 14.2525C5.88712 14.1986 6.10402 14.1448 6.30171 14.0329C6.49939 13.9209 6.65717 13.7627 6.81506 13.6043C6.82715 13.5921 6.83923 13.58 6.85133 13.5679L14.0454 6.37383L14.0454 6.37383L14.0739 6.34535C14.3828 6.03653 14.6591 5.76021 14.8526 5.50671C15.0633 5.23045 15.2358 4.90637 15.2358 4.5C15.2358 4.09363 15.0633 3.76955 14.8526 3.49329C14.6591 3.23979 14.3828 2.96347 14.0739 2.65466L14.0454 2.62617L13.5858 3.08579L14.0454 2.62617L13.8738 2.45459L13.8453 2.42609C13.5365 2.11723 13.2602 1.84086 13.0067 1.64745C12.7305 1.43667 12.4064 1.26421 12 1.26421C11.5936 1.26421 11.2695 1.43667 10.9933 1.64745C10.7398 1.84085 10.4635 2.11722 10.1547 2.42609C10.1452 2.43556 10.1357 2.44506 10.1262 2.45459L2.9321 9.64867C2.91999 9.66077 2.90787 9.67286 2.89574 9.68494C2.73734 9.84283 2.57906 10.0006 2.46713 10.1983Z" stroke="#fff" stroke-width="1.3"/>
<path d="M9.49951 3L12.4995 1L15.4995 4L13.4995 7L9.49951 3Z" fill="#fff"/>
</g>
</svg>
